<svg viewBox="0 0 102 33" focusable="false" class="chakra-icon css-1g52ut3">
  <g clip-path="url(#clip0_3045_17464)" fill="currentColor">
    <path
      d="M0.902344 17.3908C3.1185 17.3773 4.22658 18.4486 4.22658 20.6046C4.22658 23.0308 4.2725 25.457 4.20617 27.8832C4.1781 28.8906 4.42557 29.3223 5.52769 29.2415C6.79055 29.1506 8.0687 29.2541 9.33666 29.2087C10.0893 29.1834 10.4541 29.4132 10.3699 30.1983C10.3342 30.5291 10.3316 30.8699 10.3699 31.2006C10.4643 32.0262 10.1148 32.2837 9.28818 32.2711C6.49205 32.2281 3.69847 32.2509 0.902344 32.2509V17.3933V17.3908Z"></path>
    <path
      d="M18.2418 0.515625C17.979 2.84588 18.1754 5.18371 18.1321 7.51649C18.0989 9.35444 18.1244 11.1924 18.1244 13.0303C18.1244 15.3656 18.1244 15.3783 15.7008 15.348C15.267 15.3429 14.767 15.5575 14.3945 15.1334C14.6701 14.7547 14.5348 14.323 14.5374 13.9165C14.5476 9.85937 14.54 5.80225 14.5502 1.74513C14.5502 1.33614 14.4405 0.906946 14.6726 0.51815H17.7315C17.9713 0.949866 17.8514 1.41945 17.854 1.87136C17.8642 6.26174 17.8591 10.6521 17.8591 15.04C17.8591 10.6496 17.854 6.25921 17.8642 1.87136C17.8642 1.41945 17.7443 0.949866 17.9866 0.51815H18.2418V0.515625Z"></path>
    <path
      d="M0.902344 14.8697C3.26732 14.8697 5.62974 14.8697 7.99472 14.8697C8.54068 14.8697 9.09939 14.8217 9.58668 15.1525C7.41304 15.4984 5.2241 15.2232 3.04536 15.309C2.33102 15.3368 1.61668 15.3494 0.904895 15.3696V14.8672L0.902344 14.8697Z"></path>
    <path
      d="M14.6696 0.515625C14.6696 4.82016 14.6696 9.12217 14.6696 13.4267C14.6696 14.0074 14.7487 14.6032 14.3966 15.1309C14.2665 10.2583 14.2231 5.38568 14.417 0.515625H14.6721H14.6696Z"></path>
    <path
      d="M17.9856 0.515625V14.5527C17.9014 14.5527 17.8147 14.5527 17.7305 14.5527V0.515625H17.9856Z"></path>
    <path
      d="M101.881 5.04846C101.129 5.04846 100.376 5.0737 99.6258 5.04846C99.0033 5.02574 98.6054 5.33374 98.2839 5.8008C98.2099 5.07623 98.4038 4.65966 99.2814 4.7455C100.141 4.82881 101.014 4.78589 101.881 4.79599V5.04846Z"></path>
    <path
      d="M49.0685 8.87062C48.7776 8.16876 48.5047 7.39369 47.5046 7.60324C46.553 7.80269 46.3132 8.56008 46.3004 9.40332C46.2749 11.2261 46.2672 13.0514 46.2519 14.8742C45.0605 15.2731 43.8691 15.2428 42.6726 14.8995C42.4838 11.8219 42.6471 8.74186 42.5858 5.66178C42.5756 5.1417 42.7542 4.88924 43.3104 4.91953C43.7722 4.94478 44.2492 4.9877 44.7008 4.91196C45.6498 4.7529 45.9892 5.19472 45.9968 6.04805C46.5683 6.14399 46.5708 5.56332 46.8591 5.32348C48.0582 4.32624 50.5482 4.43985 51.6401 5.60876C52.084 6.08592 52.4948 6.21973 52.9412 5.64663C53.9745 4.32371 55.5281 4.38431 56.8191 4.68979C58.212 5.02052 59.008 6.2475 59.1407 7.77997C59.3397 10.0799 59.1917 12.3824 59.2325 14.6849C59.2402 15.0838 59.0692 15.3161 58.633 15.3161C57.786 15.3135 56.9364 15.3034 56.0894 15.3211C55.4465 15.3337 55.4644 14.9121 55.4644 14.4754C55.4669 12.8848 55.4771 11.2918 55.4593 9.70123C55.4491 8.83275 55.5792 7.82288 54.3622 7.60829C53.2014 7.40379 53.0203 8.37578 52.6861 9.13066C52.3519 10.7414 52.5534 12.3723 52.5611 13.9881C52.5662 14.8995 52.2396 15.1469 51.3799 15.1368C48.7445 15.104 49.2904 15.2125 49.2113 13.1019C49.1603 11.6932 49.4129 10.2718 49.0659 8.87062H49.0685Z"></path>
    <path
      d="M18.4603 23.0762C19.1976 22.5334 19.8099 22.0234 20.6492 21.8921C23.351 21.4655 25.0322 22.7657 25.1419 25.4873C25.2185 27.3707 25.1496 29.2616 25.2185 31.145C25.2516 32.0463 24.8919 32.3619 24.0296 32.2609C23.7362 32.2256 23.4326 32.2281 23.1392 32.2609C22.3228 32.3543 22.009 32.0488 22.0371 31.2106C22.0907 29.7034 22.0779 28.1912 22.032 26.6839C21.9886 25.2499 21.4299 24.5834 20.3814 24.5658C19.2053 24.5456 18.5241 25.2954 18.4884 26.7471C18.4527 28.2139 18.4271 29.6832 18.4884 31.1475C18.5266 32.0514 18.1669 32.3695 17.3072 32.2559C17.223 32.2458 17.1388 32.2559 17.052 32.2559C15.8462 32.2626 15.2424 31.6844 15.2407 30.5214C15.2407 28.1735 15.2228 25.8256 15.256 23.4776C15.2636 22.9677 14.9447 22.0966 15.9014 22.1497C16.7714 22.1976 17.9934 21.4503 18.4629 23.0762H18.4603Z"></path>
    <path
      d="M90.6689 7.78696C89.0336 7.64306 87.8779 8.24645 87.3574 9.84708C87.1023 11.5992 87.2018 13.3538 87.3013 15.1085C86.24 15.6689 85.1072 15.2473 84.0102 15.3306C83.6224 15.3609 83.5561 15.0302 83.5587 14.7171C83.5689 11.4679 83.5791 8.21868 83.5995 4.96692C83.5995 4.92148 83.7219 4.87351 83.7883 4.82807C84.1046 4.97702 84.4414 4.9139 84.7705 4.91643C86.0461 4.92821 86.8472 5.46849 87.1737 6.53726C87.8753 5.59809 88.5667 4.63872 89.9137 4.57812C90.5388 4.62862 90.8985 4.87351 90.8016 5.58294C90.7021 6.31004 90.9189 7.05986 90.6689 7.78191V7.78696Z"></path>
    <path
      d="M13.6501 32.2078C10.8412 32.3618 10.8335 32.3618 10.8361 29.6755C10.8386 27.2569 10.8616 24.8408 10.8769 22.4222C10.9152 22.4045 10.9509 22.3742 10.9917 22.3692C13.7776 22.0359 13.8082 22.0385 13.7674 24.7323C13.7291 27.2241 13.9383 29.7185 13.6501 32.2078Z"></path>
    <path
      d="M10.6016 20.3387C11.4613 17.2738 13.6962 17.0036 16.2602 17.4858C15.3468 19.2935 12.9079 20.5482 10.6016 20.3387Z"></path>
    <path
      d="M49.0687 8.875C49.6683 9.52131 49.2626 10.3014 49.3391 11.0134C49.408 11.6748 49.3519 12.3489 49.3545 13.0154C49.3596 14.7549 49.4718 14.8105 50.9132 14.8963C52.3853 14.9847 52.444 14.1414 52.4159 13.0735C52.3802 11.7809 52.4236 10.4857 52.4338 9.19058C52.4338 9.15271 52.4695 9.08455 52.4822 9.08707C52.5511 9.09212 52.62 9.11484 52.6889 9.13251C52.6965 10.8493 52.6557 12.5686 52.7272 14.2828C52.7629 15.1437 52.4363 15.328 51.6327 15.3305C49.0356 15.3406 49.0305 15.3684 49.0356 12.768C49.0356 11.4703 49.056 10.1727 49.0662 8.875H49.0687Z"></path>
    <path
      d="M45.9968 6.04568C45.5657 4.65712 44.41 5.01562 43.4635 5.11156C42.4711 5.21254 42.7338 6.09617 42.7313 6.71471C42.7109 9.43124 42.7262 12.1503 42.7313 14.8668C42.8053 15.0688 42.7415 15.1572 42.5195 15.1092C42.4966 11.9357 42.4915 8.76221 42.4379 5.59124C42.4251 4.88434 42.7287 4.74043 43.3436 4.78335C43.8487 4.8187 44.3666 4.84899 44.8641 4.7783C45.9484 4.62177 46.1933 5.12418 45.9994 6.04568H45.9968Z"></path>
    <path
      d="M42.5195 15.1096C42.591 15.0288 42.6598 14.948 42.7313 14.8672C43.9048 14.8672 45.0809 14.8722 46.2545 14.8722C46.252 15.0363 46.2443 15.2585 46.053 15.2585C44.8743 15.2585 43.6803 15.5286 42.5195 15.1096Z"></path>
    <path
      d="M87.3017 15.1051C87.0134 13.348 86.8731 11.5933 87.3579 9.84375C87.34 11.5984 87.3196 13.3505 87.3017 15.1051Z"></path>
    <path
      d="M87.172 6.53844C86.8862 5.22815 86.0061 4.88227 84.7636 5.03122C84.4524 5.06909 84.1156 4.90247 83.7891 4.83178C84.2534 4.8141 84.7177 4.78381 85.182 4.78128C86.4338 4.77623 87.0971 5.36195 87.172 6.53844Z"></path>
    <path
      d="M90.6679 7.78472C90.4357 6.71174 91.2342 5.40144 89.9102 4.58093C90.6321 4.42692 91.0608 4.6087 90.9255 5.44184C90.798 6.21943 91.2011 7.05256 90.6679 7.78724V7.78472Z"></path>
    <path
      d="M82.48 12.6023C81.3498 12.1655 80.1661 12.4407 79.0078 12.3473C80.1406 11.7918 81.3243 12.1024 82.4902 12.1806C82.6688 12.1933 82.5259 12.4558 82.48 12.6023Z"></path>
    <path
      d="M11.2511 7.27411C13.3737 5.45636 13.3966 3.6588 11.5929 1.64413C10.9959 0.977617 10.1719 1.00539 9.56982 0.51813C6.93442 0.51813 4.29901 0.540852 1.66616 0.500457C1.02581 0.490359 0.877836 0.644363 0.882939 1.273C0.913553 5.80476 0.900797 10.339 0.900797 14.8708C1.33961 15.2268 1.86771 15.1132 2.36519 15.1182C4.77099 15.151 7.17933 15.0778 9.58513 15.1536C11.4679 15.045 12.7129 14.1664 13.2793 12.5936C14.1186 10.2633 13.2818 8.54401 11.2536 7.27158L11.2511 7.27411ZM5.03631 4.16121C5.24041 3.29273 6.11293 3.90874 6.62827 3.67647C7.11555 3.71687 7.58753 3.71182 8.03654 3.80776C8.66414 3.94156 8.92181 4.4162 8.93457 5.01202C8.94988 5.62803 8.62842 6.05217 8.04419 6.239C7.7304 6.33746 7.37578 6.29959 7.05943 6.393C6.40121 6.58488 5.56186 6.80452 5.15877 6.33746C4.6868 5.78709 4.87049 4.86054 5.03376 4.16121H5.03631ZM8.37585 12.0003C7.9396 12.129 7.49058 12.225 7.04157 12.3184C5.30929 12.6769 4.98529 12.4168 4.98529 10.6824C5.0108 8.78385 4.78119 9.06914 6.69715 9.04389C7.16148 9.03884 7.62835 9.03127 8.09012 9.06409C8.91926 9.11963 9.43971 9.55387 9.48818 10.3895C9.5341 11.1797 9.17693 11.7629 8.37585 12.0028V12.0003Z"></path>
    <path
      d="M99.4357 4.90867C98.6576 4.77739 98.4535 5.23435 98.2825 5.79988C98.0504 5.63577 97.7927 5.49692 97.5886 5.30252C96.7187 4.47443 93.9455 4.40374 93.0908 5.20153C91.1851 6.97889 90.6136 9.95293 91.6673 12.3514C92.749 14.8129 95.3461 15.025 97.0988 14.414C97.4355 14.2953 97.5988 13.6213 98.0019 13.9646C98.3795 14.2878 98.1524 14.8508 98.0121 15.2749C97.7187 16.1686 96.4329 16.6332 95.5757 15.9742C94.4506 15.1133 93.2413 15.439 92.0499 15.3607C91.3994 15.3178 91.3688 15.641 91.5576 16.1459C91.9657 17.2416 92.7464 17.951 93.8256 18.3752C97.3488 19.7587 100.28 18.5746 101.882 15.1209V5.04753C101.079 4.77234 100.239 5.04248 99.4357 4.90615V4.90867ZM97.6345 11.6268C96.8768 12.3918 95.7339 12.2024 95.2466 11.2506C94.8741 10.5185 94.7695 9.75349 94.9328 8.94812C95.1241 8.00643 95.54 7.26923 96.6421 7.2869C97.6932 7.30457 98.0274 8.09731 98.2596 8.93045C98.3259 9.16524 98.303 9.42528 98.3208 9.67522C98.3412 10.4124 98.1626 11.089 97.632 11.6268H97.6345Z"></path>
    <path
      d="M70.8398 6.88028C70.0668 5.09787 68.457 4.44651 66.592 4.66616C65.6711 4.77472 64.9848 5.18119 64.1429 5.64825V0.515625H60.3186C60.3186 5.04233 60.3135 9.56904 60.3212 14.0957C60.3212 14.4593 60.1324 15.0097 60.4768 15.1536C61.3901 15.5348 62.3953 15.2419 63.3571 15.3202C64.1786 15.3858 63.6428 14.4871 64.0995 14.2977C66.3548 16.7466 69.8678 15.56 70.7939 13.3484C71.6945 11.2 71.7761 9.03129 70.8424 6.8828L70.8398 6.88028ZM65.8012 12.9824C64.9746 13.0455 63.9592 11.4524 63.9311 10.0437C63.898 8.44557 64.6837 7.16304 65.7221 7.1176C66.8778 7.0671 67.661 8.24612 67.6457 10.0159C67.6304 11.5585 66.7936 12.9092 65.8012 12.9824Z"></path>
    <path
      d="M34.0105 22.2408C31.3827 21.0315 27.8034 22.3115 26.6247 24.8816C25.3415 27.6789 26.5278 30.7564 29.3724 32.0188C29.6709 32.1526 30.0433 32.1677 30.2245 32.506H33.0283C33.8625 32.0415 34.8651 31.8824 35.5642 31.173C35.7606 30.9735 36.0846 30.8322 36.0259 30.4762C35.9086 29.7642 34.0181 29.0624 33.4211 29.4991C32.2476 30.3575 30.8317 30.3197 29.9668 29.3881C29.7142 29.1154 29.38 28.815 29.5484 28.4085C29.7091 28.0197 30.1377 28.1661 30.4515 28.1611C32.1889 28.1434 33.9288 28.1535 35.6662 28.1459C36.1331 28.1459 36.5744 28.1661 36.7046 27.5097C37.0847 25.5834 35.8295 23.0764 34.0079 22.2382L34.0105 22.2408ZM33.462 25.7096C33.314 26.1363 32.893 25.947 32.5895 25.9747C32.2144 26.0075 31.8343 25.9823 31.4542 25.9823C31.1608 25.9823 30.8597 26.0151 30.5714 25.9747C30.1888 25.9217 29.6249 26.2221 29.4642 25.7046C29.3162 25.235 29.7142 24.8588 30.0842 24.566C31.0332 23.8136 32.4721 23.9247 33.1405 24.8033C33.3421 25.0659 33.5793 25.3612 33.4594 25.7071L33.462 25.7096Z"></path>
    <path
      d="M46.8415 24.8018C46.5405 23.2769 45.5965 22.3074 44.099 21.9994C42.3157 21.6333 40.5349 21.7444 38.9123 22.6685C38.5271 22.8881 37.6087 23.085 38.1827 23.744C38.6241 24.2489 38.9328 25.5415 40.2058 24.5619C41.387 23.6531 42.7825 23.7313 43.5989 24.514C43.8821 24.7866 44.1551 25.1073 44.0224 25.4986C43.8847 25.9076 43.4459 25.7536 43.1321 25.7713C41.6472 25.852 40.1624 25.9177 38.795 26.6044C37.6546 27.1775 37.1188 28.1268 37.129 29.3563C37.1393 30.5353 37.6725 31.4542 38.7542 32.0071C39.1266 32.1965 39.5272 32.3354 39.9124 32.4969H41.9534C42.6626 32.0955 43.3693 31.6966 44.0913 31.2876C44.3082 32.9716 45.5889 32.0198 46.3797 32.2293C46.8313 32.348 47.0788 32.0526 47.0609 31.5754C46.9818 29.3184 47.2803 27.0487 46.8364 24.8018H46.8415ZM43.5122 29.7678C43.0121 30.197 42.3922 30.3081 41.7799 30.3787C41.0758 30.2702 40.3436 30.1869 40.2262 29.3487C40.1063 28.513 40.7441 28.1823 41.4202 27.9879C41.8615 27.8617 42.3284 27.7733 42.7825 27.7733C43.2469 27.7733 43.9025 27.4729 44.1168 28.104C44.3337 28.7352 44.0224 29.326 43.5122 29.7653V29.7678Z"></path>
    <path
      d="M23.3476 4.63578C21.0285 4.72414 18.9365 6.75649 18.9493 10.0411C18.9646 13.4393 21.1229 15.6307 24.5237 15.6357C27.8887 15.6408 30.019 13.5049 30.0369 10.1067C30.0573 6.34497 27.9219 4.46411 23.3476 4.63578ZM25.7151 12.3436C25.3605 12.8813 24.8936 13.1565 24.2226 13.0959C23.5899 13.0378 23.2659 12.6894 23.0593 12.1214C22.6001 10.8515 22.6026 9.57148 22.97 8.29906C23.1639 7.6275 23.5721 7.08722 24.3936 7.0746C25.2559 7.06198 25.6641 7.59973 25.96 8.30663C26.21 8.91255 26.1411 9.54119 26.1718 10.0284C26.1718 10.9222 26.1565 11.672 25.7176 12.3436H25.7151Z"></path>
    <path
      d="M76.5682 11.0478C78.3489 11.0907 80.1322 11.0529 81.9155 11.063C82.4309 11.0655 82.8365 11.0226 82.8314 10.351C82.8136 8.02834 82.0074 6.03386 79.8286 5.03158C77.8923 4.14037 75.7901 4.20601 73.9991 5.54156C72.0525 6.99323 71.7285 9.08617 72.0653 11.3154C72.4148 13.6179 74.3206 15.3473 76.7034 15.6175C79.5148 15.9381 81.5584 14.8702 82.4819 12.6005C81.3747 11.8633 80.1782 12.2824 79.0097 12.3455C77.4917 13.5927 76.4789 13.4639 75.9049 11.9895C75.6293 11.2826 75.7569 11.0251 76.5682 11.0453V11.0478ZM77.3438 7.00838C78.2545 7.00081 79.2291 7.76073 79.0429 8.4853C78.8209 9.35631 77.979 8.7201 77.4484 8.98266C76.9126 8.67718 75.9074 9.43205 75.8028 8.47015C75.711 7.65217 76.3513 7.01848 77.3438 7.00838Z"></path>
    <path
      d="M34.882 4.6119C32.6675 4.57655 30.4811 7.3259 30.5041 10.1131C30.5321 13.4356 32.7568 15.6371 36.0887 15.6396C39.4333 15.6421 41.6044 13.476 41.6376 10.1005C41.6733 6.51044 39.4257 4.68511 34.882 4.60938V4.6119ZM37.3949 12.1985C37.1015 12.764 36.6653 13.1124 35.9969 13.1074C35.308 13.1023 34.8845 12.6883 34.6575 12.1202C34.1421 10.8276 34.1702 9.49711 34.5911 8.19186C34.7927 7.56827 35.2289 7.10878 35.9713 7.07849C36.7724 7.04567 37.2291 7.50515 37.5021 8.17166C37.7419 8.75486 37.8414 9.37592 37.8414 10.1661C37.8108 10.762 37.7546 11.5093 37.3975 12.1985H37.3949Z"></path>
  </g>
</svg>