<svg viewBox="0 0 96 45" focusable="false" class="chakra-icon css-1trjw2m">
  <g fill="currentColor">
    <path
      d="M70.4766 23.8317C70.4766 27.9193 70.4993 32.0101 70.4701 36.0977C70.4377 40.581 67.7872 43.6694 63.4141 44.3993C60.2609 44.9249 57.0038 43.3353 55.2325 40.3312C52.2479 35.2639 49.3022 30.1772 46.3371 25.1001C46.0711 24.6427 45.7791 24.1983 45.4937 23.7311C44.9032 24.0458 45.153 24.5324 45.1498 24.9022C45.1271 28.5227 45.1563 32.1398 45.1271 35.7603C45.0849 41.1747 42.0776 44.2306 36.7151 44.2728C31.8522 44.3118 26.9892 44.328 22.1263 44.2631C11.2293 44.1203 1.89927 35.3677 0.92279 24.8568C-0.202918 12.779 8.27395 2.80333 18.9244 1.05799C22.2074 0.519471 25.5002 0.860103 28.7897 0.753047C29.3834 0.733582 29.7111 0.967159 29.6916 1.59327C29.6916 1.64842 29.6916 1.70033 29.6981 1.75548C30.1295 6.01824 30.1295 6.07015 25.896 6.00527C22.0841 5.94363 18.3631 6.13503 14.8822 7.98742C8.82221 11.2153 5.17258 18.3686 6.31451 24.9574C7.56673 32.1788 12.9552 37.7295 19.956 38.6994C25.484 39.465 31.0671 38.9525 36.6275 38.9622C38.6745 38.9655 39.8294 37.2947 39.8327 34.8552C39.8424 26.6995 39.823 18.5438 39.8554 10.3881C39.8586 9.44078 39.3396 8.12367 40.6729 7.70518C42.136 7.24452 42.3955 8.69464 42.9016 9.55757C48.2706 18.7287 53.6137 27.916 58.9632 37.0968C60.0046 38.8876 61.2633 39.6013 62.7167 39.2347C64.3874 38.813 65.1822 37.5867 65.1822 35.3807C65.1854 26.8454 65.1822 18.3134 65.1822 9.77817C65.1822 8.92497 65.007 7.93227 66.1392 7.64679C67.2714 7.36131 67.5861 8.34427 68.0111 9.0742C73.2503 18.0701 78.4863 27.0693 83.7223 36.0685C84.0467 36.6265 84.3581 37.1974 84.7085 37.7392C85.526 39.0011 86.6842 39.6175 88.1635 39.1958C89.6688 38.7676 90.496 37.723 90.4928 36.0912C90.4863 31.5008 90.4928 26.9071 90.4928 22.3167C90.4928 15.6176 90.5155 8.92172 90.4701 2.22263C90.4636 1.1391 90.7004 0.72385 91.8845 0.720606C95.878 0.70763 95.878 0.658968 95.878 4.67842C95.878 15.0499 95.8975 25.4213 95.8683 35.7895C95.8553 40.5226 93.2081 43.6694 88.7474 44.4026C85.5682 44.9281 82.3014 43.2769 80.4782 40.1723C77.4741 35.0563 74.4993 29.9209 71.5115 24.7952C71.3006 24.4318 71.067 24.0815 70.8432 23.7279C70.7199 23.7635 70.5966 23.796 70.4733 23.8317H70.4766Z"></path>
    <path
      d="M57.986 21.2665C57.986 20.6112 57.986 19.9916 57.986 19.3687C57.986 15.7483 57.9471 12.1311 58.0055 8.51066C58.0606 4.82859 60.4353 1.77263 63.8513 0.835083C67.4588 -0.154372 71.1765 1.25357 73.0938 4.47498C76.1563 9.62014 79.1376 14.814 82.1708 19.9786C82.4304 20.423 82.5699 20.981 83.1473 21.2762C83.475 20.8383 83.329 20.3452 83.329 19.8975C83.342 14.0094 83.3614 8.12136 83.316 2.2333C83.3095 1.15301 83.5496 0.731271 84.7337 0.724783C88.6234 0.708563 88.6234 0.659901 88.6234 4.61448C88.6234 14.6615 88.6234 24.7085 88.6234 34.7555C88.6234 35.2941 88.6721 35.8488 88.5715 36.3711C88.3606 37.4611 87.2901 37.779 86.5147 36.994C86.2195 36.6955 86.0249 36.29 85.8075 35.9169C80.3769 26.5933 74.9495 17.2698 69.5221 7.94618C68.4515 6.10677 67.1117 5.37035 65.6259 5.80182C64.0427 6.26248 63.2934 7.46605 63.2934 9.59743C63.2901 18.1327 63.2934 26.6647 63.2934 35.2C63.2934 36.0564 63.4718 37.0621 62.3785 37.3703C61.2723 37.6785 60.9187 36.715 60.4872 35.9753C55.222 26.9307 49.9568 17.8861 44.6916 8.8448C44.3672 8.28681 44.0623 7.70936 43.6957 7.17732C42.8392 5.94456 41.6616 5.38333 40.1888 5.84724C38.7516 6.30141 37.9828 7.32655 37.9828 8.874C37.9828 14.7621 37.9828 20.6501 37.9828 26.5382C37.9828 29.3476 37.973 32.157 37.986 34.9632C37.9925 36.4198 37.3761 37.1432 35.8417 37.1302C31.248 37.0913 26.6543 37.1659 22.0607 37.0978C15.128 36.9907 8.77927 31.1124 8.14667 24.3062C7.42323 16.5204 12.3381 9.66556 19.6438 8.23815C22.6998 7.64123 25.7849 8.04026 28.8571 7.92023C29.4994 7.89427 29.7265 8.21869 29.707 8.80587C29.707 8.86102 29.707 8.91293 29.7135 8.96807C29.9514 11.7883 28.6657 13.1995 25.8563 13.2016C24.4548 13.2049 23.0307 13.1368 21.6519 13.3347C16.6527 14.0484 13.1004 18.2592 13.4281 22.9567C13.7785 27.9818 17.7071 31.7093 22.8425 31.8293C25.3275 31.8877 27.8125 31.8553 30.3007 31.8358C32.1726 31.8229 32.5846 31.4238 32.5911 29.5293C32.6073 22.7231 32.5716 15.917 32.6105 9.11082C32.6365 4.53662 35.1799 1.46444 39.5043 0.633948C42.81 -0.00189829 46.1385 1.65909 48.0428 4.91293C51.0663 10.0808 54.0833 15.2552 57.1068 20.423C57.2853 20.7247 57.3307 21.153 57.999 21.2633L57.986 21.2665Z"></path>
  </g>
</svg>