<svg viewBox="0 0 105 27" focusable="false" class="chakra-icon css-xlilmo">
  <g fill="currentColor">
    <path
      d="M10.0131 2.57687C9.52809 4.14999 9.82436 5.7703 9.72735 7.36702C9.63559 8.88508 9.68802 10.4136 9.61461 11.9343C9.57791 12.6999 10.042 12.9726 10.6162 13.0119C13.1332 13.1849 14.4257 12.3302 15.4928 9.88139C16.2112 9.1997 16.4341 9.5353 16.4315 10.3376C16.4315 12.2961 16.4236 14.2547 16.4367 16.2132C16.4367 16.6432 16.3449 17.0837 16.5337 17.5005C16.0225 17.8938 15.6318 17.9384 15.4352 17.1833C14.6145 13.9977 13.2459 14.273 10.3697 14.1393C9.77192 14.1105 9.61461 14.4382 9.63559 14.9468C9.72997 17.4219 9.66705 19.8995 10.0053 22.3667C10.2648 24.2597 11.5758 24.7893 13.162 25.0567C13.3691 25.2717 13.6811 25.5182 13.1777 25.7122C12.8579 25.8354 12.4908 25.7542 12.1447 25.7542C8.63141 25.7568 5.11549 25.7542 1.60219 25.7594C1.17482 25.7594 0.734351 25.665 0.320096 25.8643C-0.19379 25.1354 0.369912 24.9938 0.886419 24.889C2.87117 24.4904 3.46634 23.835 3.69968 21.7584C3.78096 21.0374 3.65249 20.2928 3.95138 19.5954C4.20308 19.3437 4.11131 19.0238 4.11131 18.7302C4.11656 15.0334 4.11656 11.3365 4.11131 7.64231C4.11131 7.35129 4.20832 7.02618 3.94352 6.78234C3.67871 6.30254 3.74688 5.77292 3.72328 5.25904C3.6184 3.08551 2.43332 1.98957 0.317474 1.79818C0.398752 0.883144 1.09617 1.01948 1.68871 1.01686C5.82601 1.00899 9.96332 1.01424 14.1032 1.01162C15.9333 1.01162 17.7634 1.00375 19.5908 1.01686C20.0627 1.01948 20.553 0.91985 20.9988 1.17679C21.337 2.73943 21.0591 4.32303 21.1508 5.89353C21.1875 6.53064 21.0459 7.17824 21.2452 7.80749C20.5058 8.47082 20.1807 8.12736 19.8897 7.33556C19.0612 5.07551 17.7188 3.28477 15.2464 2.62669C13.5055 2.30157 11.7593 2.40383 10.0131 2.57687Z"></path>
    <path
      d="M91.561 20.3726C91.7445 20.7134 91.9674 21.0412 92.1011 21.4004C92.788 23.2409 94.2274 24.2661 95.95 24.9845C96.8467 25.3568 98.8393 24.4313 99.4161 23.4009C100.108 22.1686 99.8566 20.876 98.7344 20.0344C97.5991 19.1849 96.2332 18.8283 94.9406 18.3144C93.3176 17.6695 91.8573 16.8174 91.27 15.0371C90.3733 12.3235 91.5295 9.8327 94.1514 8.50341C97.08 7.01944 100.176 7.41534 103.218 8.33299C103.338 8.3697 103.475 8.41427 103.561 8.49817C103.863 8.78395 103.968 12.8164 103.671 13.1179C103.32 13.4745 103.055 13.3014 102.869 12.9213C102.544 12.2579 102.282 11.5553 101.894 10.9339C101.115 9.68325 100.027 8.87572 98.4775 8.86523C97.0853 8.85474 96.1493 9.59411 95.8582 10.9313C95.5908 12.1557 96.1833 13.2542 97.3763 13.8337C98.8576 14.5521 100.281 15.412 101.81 16.0046C103.978 16.8462 104.896 18.4508 104.817 20.6138C104.731 22.9971 103.472 24.6961 101.28 25.674C99.167 26.6179 96.9437 26.555 94.723 26.3164C93.7319 26.2089 92.7618 25.9178 91.7786 25.7396C90.9422 25.5901 90.5411 25.1706 90.7639 24.2949C90.9658 23.2016 90.8111 22.0978 90.8557 20.9992C90.8741 20.5299 90.8924 20.0973 91.561 20.37V20.3726Z"></path>
    <path
      d="M45.1583 21.4239C45.2134 21.5865 45.3235 21.7543 45.313 21.9116C45.1872 23.7941 46.0026 24.9372 47.8929 25.2728C48.1263 25.3148 48.454 25.2702 48.4881 25.6268C48.4959 25.7107 48.3544 25.8077 48.281 25.8994C47.088 25.5743 45.8715 25.7579 44.6706 25.7684C42.29 25.7893 39.9067 25.5953 37.5287 25.8759C36.9728 25.2466 37.4212 25.0369 37.956 24.9713C39.482 24.7799 39.8228 23.7154 39.8595 22.4464C39.9487 19.177 40.0483 15.9049 39.8805 12.6354C39.8071 11.2432 39.6052 9.96637 37.7961 9.89558C37.5601 9.88509 37.3583 9.76448 37.3373 9.51541C37.298 9.07493 37.6834 9.05658 37.9587 9.00414C39.461 8.72885 40.9686 8.47715 42.4761 8.22283C42.5128 8.21758 42.56 8.27264 42.5967 8.26478C43.5118 8.09698 44.6339 7.07969 45.2684 8.02619C45.722 8.70263 45.2946 9.96637 45.2632 10.9679C45.2632 11.0072 45.2946 11.0466 45.3445 11.1646C45.7928 11.0833 45.8295 10.6271 46.0104 10.3544C47.1798 8.5794 48.7817 7.59882 50.9343 7.52017C52.4733 7.46248 52.8561 7.94753 52.3029 9.36596C51.9856 10.1761 51.6055 10.9653 51.3538 11.7964C51.0968 12.6459 50.6721 12.7534 49.9013 12.4309C48.315 11.7623 46.755 11.8489 45.2763 12.7901C44.9302 12.8924 45.001 13.186 45.001 13.4299C44.9958 15.939 44.9958 18.4481 44.9984 20.9572C44.9984 21.1381 45.0325 21.2981 45.1609 21.4292L45.1583 21.4239Z"></path>
    <path
      d="M21.0037 1.27031C14.761 1.27031 8.51574 1.27031 2.27307 1.2572C1.55992 1.2572 0.87824 1.27556 0.314539 1.78682C-0.228188 0.62009 0.665869 0.832461 1.26365 0.829839C5.31706 0.819352 9.37046 0.824596 13.4265 0.824596C15.6053 0.824596 17.7867 0.814108 19.9654 0.832461C20.3823 0.835083 20.8411 0.672527 21.2108 1.02124C21.1898 1.14446 21.1243 1.23098 21.0037 1.27031Z"></path>
    <path
      d="M0.320312 25.8568C0.844686 25.5657 1.41887 25.6182 1.9852 25.6182C5.30186 25.6155 8.61852 25.6287 11.9352 25.6024C12.3835 25.5998 13.06 25.8987 13.1648 25.0492C13.5607 25.023 13.7207 25.217 13.6709 25.5972C13.6368 25.8672 13.4375 25.9302 13.2094 25.9459C13.1229 25.9538 13.0364 25.959 12.9498 25.9564C8.73912 25.8987 4.52841 26.0901 0.320312 25.8568Z"></path>
    <path
      d="M3.94141 6.78125C4.19311 7.16142 4.24292 7.58878 4.24292 8.02926C4.24292 11.4665 4.24292 14.9064 4.24292 18.3437C4.24292 18.7842 4.19835 19.2141 3.94927 19.5969C3.94665 15.3259 3.94403 11.0523 3.94141 6.78125Z"></path>
    <path
      d="M54.5536 8.59106C54.5536 12.1752 54.5536 15.7592 54.5536 19.3433C54.4749 19.5164 54.4041 19.5138 54.3359 19.3381C54.3359 15.7566 54.3359 12.1778 54.3359 8.59631C54.4015 8.41802 54.4749 8.4154 54.5509 8.59106H54.5536Z"></path>
    <path
      d="M37.5293 25.8691C38.0904 25.5439 38.7118 25.6174 39.3148 25.6147C41.7977 25.6095 44.278 25.6121 46.7609 25.6147C47.2826 25.6147 47.8096 25.5964 48.2789 25.8927C44.6949 25.987 41.1108 26.0316 37.5293 25.8691Z"></path>
    <path
      d="M16.5335 17.4999C16.0196 15.3368 16.4233 13.1397 16.2975 10.9609C16.266 10.4156 16.4076 9.76275 15.4926 9.88335C15.427 9.31703 15.7626 9.22264 16.2136 9.28033C16.6593 9.33538 16.5885 9.69196 16.5859 9.97774C16.5728 12.4869 16.5518 14.9934 16.5335 17.5025V17.4999Z"></path>
    <path
      d="M45.1584 21.4203C44.5449 19.6138 44.9382 17.7497 44.891 15.9144C44.8622 14.8709 44.5528 13.7487 45.2764 12.7812C45.009 15.6574 45.2476 18.5415 45.161 21.4203H45.1584Z"></path>
    <path
      d="M59.5222 8.5935C59.045 7.33763 59.3754 6.03194 59.281 4.75509C59.1761 3.34452 59.5065 1.91036 59.0293 0.523396C59.6821 0.389681 59.5956 0.856373 59.5904 1.2313C59.5694 3.68537 59.5432 6.13943 59.5196 8.5935H59.5222Z"></path>
    <path
      d="M21.0044 1.28033C21.0725 1.19643 21.1433 1.11253 21.2115 1.03125C21.3426 3.28868 21.4291 5.54873 21.2429 7.80877C20.7527 5.64836 21.1486 3.45385 21.0017 1.28033H21.0044Z"></path>
    <path
      d="M54.339 19.3359C54.4124 19.3359 54.4832 19.3386 54.5566 19.3412C54.6929 21.4492 54.297 23.5781 54.8162 25.6704C54.1345 25.6704 54.2446 25.1722 54.2498 24.7553C54.2734 22.9489 54.3075 21.1424 54.339 19.3359Z"></path>
    <path
      d="M10.0137 2.57023C11.7625 2.18481 13.506 2.10616 15.2469 2.62004C13.5034 2.60431 11.7598 2.58596 10.0137 2.57023Z"></path>
    <path
      d="M91.5613 20.3711C90.9268 20.6936 91.0212 21.294 90.9898 21.8524C90.9452 22.6704 91.134 23.5094 90.7643 24.2986C90.7407 23.1371 90.704 21.9756 90.6935 20.8142C90.6883 20.1377 90.8272 19.6527 91.5587 20.3711H91.5613Z"></path>
    <path
      d="M54.5527 8.59212C54.4819 8.59212 54.4085 8.59736 54.3377 8.59736C54.3141 7.3913 54.2931 6.18262 54.2695 4.97656C54.8857 6.14067 54.4164 7.3913 54.5501 8.59212H54.5527Z"></path>
    <path
      d="M70.9276 14.3433C70.0388 9.20181 65.5239 6.45148 60.351 8.49391C60.094 8.59616 59.8345 8.8767 59.5198 8.59354C59.2734 6.32825 59.4779 4.05247 59.4019 1.78456C59.3861 1.34146 59.588 0.811843 59.0269 0.523438C56.6279 1.24707 53.9956 1.09763 51.6621 2.36137C53.445 2.45313 53.9405 3.63297 54.2682 4.97537C54.6143 6.27319 54.339 7.59461 54.4256 8.9003V19.3196C54.4256 21.0055 54.4256 22.6887 54.4256 24.3746C54.4256 24.8439 54.339 25.342 54.8083 25.6724C57.48 26.4563 60.2277 26.7185 62.9545 26.3069C69.8788 25.2634 71.7902 19.3799 70.9197 14.3433H70.9276ZM63.3792 24.0311C62.1863 25.342 60.5188 25.5649 59.5618 24.5371C59.2813 22.7228 59.3835 20.9032 59.5015 19.0836C59.5198 16.4277 59.5775 13.7717 59.5303 11.1184C59.5146 10.227 59.8554 9.87563 60.663 9.74192C62.1758 9.49022 63.3032 10.0854 64.1474 11.2862C66.2502 14.2673 65.8149 21.3489 63.3766 24.0311H63.3792Z"></path>
    <path
      d="M59.5044 19.0781C59.5254 20.8951 59.5438 22.7147 59.5647 24.5316C59.0377 22.7199 59.2029 20.8977 59.5044 19.0781Z"></path>
    <path
      d="M9.27344 12.1516V8.97918C9.31277 8.97918 9.35209 8.97918 9.39142 8.97656V12.1044C9.35209 12.1202 9.31277 12.1359 9.27344 12.1516Z"></path>
    <path
      d="M9.29492 17.6654V14.7709C9.32376 14.7709 9.35522 14.7656 9.38407 14.7656V17.6602C9.35522 17.6602 9.32376 17.6628 9.29492 17.6654Z"></path>
    <path
      d="M27.0963 7.60995C21.9942 7.94292 18.7142 11.9019 18.8086 17.2138C18.8847 23.0396 22.3219 26.4979 27.9825 26.4454C33.4675 26.393 37.2403 22.4917 37.201 16.9123C37.1617 11.6686 34.0993 7.15374 27.099 7.60995H27.0963ZM30.9819 22.4025C30.8273 22.898 30.6752 23.4224 30.3868 23.8419C29.1335 25.6615 27.1855 26.1675 25.7618 23.7528C24.9936 22.4471 24.8468 20.9579 24.4614 19.5394C24.1834 17.6412 24.173 15.743 24.4692 13.8447C24.8625 12.7016 24.8179 11.4484 25.4446 10.355C26.6401 8.26279 28.832 8.16316 30.1167 10.1899C30.8561 11.3566 31.2153 12.6675 31.328 14.0178C31.564 16.8232 31.8367 19.6417 30.9793 22.4051L30.9819 22.4025Z"></path>
    <path d="M24.4719 13.8438L24.464 19.5384C23.937 17.6402 24.0078 15.742 24.4719 13.8438Z"></path>
    <path
      d="M79.4423 16.1506C82.4077 16.2266 85.3783 16.182 88.3488 16.1689C88.8234 16.1689 89.4762 16.3787 89.4238 15.4846C89.2612 12.7421 88.4327 10.3405 86.0206 8.73331C84.6913 7.84712 83.2808 7.72389 81.6604 7.68981C78.9285 7.63475 76.8179 8.56551 75.0848 10.4637C71.4824 14.407 71.9989 21.1138 76.0864 24.5405C79.7806 27.637 86.503 26.8897 89.0777 23.0985C88.2518 22.915 88.2597 22.9333 87.5203 23.2401C85.1344 24.2285 82.835 24.1132 80.6851 22.6082C78.9232 21.3759 78.5798 19.4489 78.2468 17.5166C78.0764 16.5281 78.3254 16.1191 79.445 16.1479L79.4423 16.1506ZM80.1607 9.32323C80.9709 8.4449 82.1612 8.4921 82.7485 9.42024C83.7946 11.072 84.1801 12.8968 83.6426 14.8396C81.9043 15.17 80.1607 15.0468 78.4172 14.9026C78.1576 12.7815 78.7213 10.8832 80.1607 9.32323Z"></path>
    <path
      d="M78.418 14.9067C80.1589 14.8857 81.9024 14.8647 83.6433 14.8438C81.9077 15.3603 80.1641 15.2737 78.418 14.9067Z"></path>
  </g>
</svg>