<svg viewBox="0 0 98 59" focusable="false" class="chakra-icon css-190nvfh">
  <g fill="currentColor">
    <path
      d="M78.3247 30.925C77.2763 32.7479 76.277 34.4846 75.2787 36.2202C74.3788 37.7843 73.4769 39.3474 72.584 40.9155C72.4586 41.1362 72.3301 41.2626 72.0462 41.2616C68.1174 41.2516 64.1886 41.2536 60.2599 41.2526C60.2107 41.2526 60.1605 41.2406 60.1013 41.2336C60.0632 41.0088 60.2277 40.8644 60.3221 40.6998C64.1254 34.0602 67.9278 27.4196 71.7493 20.79C72.0041 20.3476 72.0211 20.0325 71.7593 19.5811C68.1837 13.427 64.6301 7.25995 61.0725 1.09588C60.9661 0.911276 60.8668 0.721659 60.7615 0.529032C60.9511 0.382555 61.1397 0.444758 61.3123 0.443754C65.1739 0.439741 69.0364 0.447767 72.898 0.429709C73.3093 0.427702 73.517 0.569163 73.7126 0.915289C75.1875 3.51676 76.6833 6.10719 78.1722 8.69963C78.3775 9.0568 78.5798 9.06382 78.7791 8.7207C80.2951 6.10418 81.816 3.49067 83.3199 0.867133C83.5005 0.55311 83.6962 0.429709 84.0644 0.430712C87.8256 0.444758 91.5879 0.438738 95.3491 0.439741C95.9099 0.439741 95.9119 0.443754 95.636 0.927329C92.0885 7.13554 88.5429 13.3458 84.9844 19.548C84.7867 19.8931 84.7777 20.1399 84.9813 20.489C88.9051 27.2139 92.8138 33.9468 96.7256 40.6787C96.8169 40.8353 96.9001 40.9968 96.9884 41.1563C96.856 41.3148 96.6955 41.2486 96.559 41.2486C92.6302 41.2526 88.7014 41.2466 84.7727 41.2616C84.4145 41.2626 84.2439 41.1272 84.0764 40.8373C82.2926 37.7392 80.4957 34.6481 78.7019 31.555C78.5935 31.3684 78.4812 31.1848 78.3247 30.922V30.925Z"></path>
    <path
      d="M1.86356 20.788C1.86356 14.1845 1.86757 7.58104 1.85352 0.977536C1.85252 0.526066 1.96087 0.390625 2.42739 0.390625C10.2679 0.404671 18.1084 0.401661 25.949 0.397648C26.279 0.397648 26.5058 0.403667 26.5349 0.849118C26.7546 4.21809 26.9904 7.58505 27.2502 10.951C27.2903 11.4737 27.1429 11.5861 26.6382 11.5831C22.4426 11.563 18.2459 11.578 14.0502 11.562C13.6218 11.56 13.4764 11.6513 13.4864 12.1088C13.5185 13.5294 13.5165 14.951 13.4864 16.3717C13.4774 16.8081 13.6248 16.8863 14.0252 16.8853C17.4192 16.8703 20.8122 16.8833 24.2063 16.8673C24.6086 16.8653 24.7461 16.9495 24.743 17.3819C24.724 20.7589 24.724 24.1359 24.743 27.5129C24.7461 27.9554 24.5926 28.0236 24.1993 28.0216C20.7892 28.0075 17.3781 28.0216 13.968 28.0035C13.5496 28.0015 13.4342 28.1159 13.4352 28.5333C13.4503 32.5624 13.4352 36.5915 13.4543 40.6196C13.4563 41.1072 13.354 41.2677 12.8262 41.2637C9.36598 41.2366 5.90572 41.2396 2.44445 41.2607C1.98595 41.2637 1.89566 41.1212 1.89666 40.6959C1.9087 34.0592 1.90569 27.4226 1.90569 20.785H1.86255L1.86356 20.788Z"></path>
    <path
      d="M7.12198 58.5237C5.25089 58.5237 3.3788 58.5057 1.5077 58.5358C1.01008 58.5438 0.844545 58.3843 0.910761 57.9128C0.933836 57.7492 0.936846 57.5757 0.910761 57.4121C0.790369 56.6617 1.06225 56.1059 1.66221 55.6464C1.93108 55.4407 2.16986 55.3213 2.51097 55.3233C5.11746 55.3344 7.72394 55.3304 10.3314 55.3293C11.0137 55.3293 11.1551 55.1869 11.1581 54.5107C11.1601 54.1264 11.1451 53.7412 11.1611 53.3579C11.1812 52.9085 10.9936 52.7369 10.5371 52.7389C8.13127 52.753 5.72443 52.7389 3.3186 52.753C2.95341 52.755 2.72065 52.5985 2.43773 52.3928C1.24385 51.524 0.809431 50.3993 0.995035 48.9405C1.09937 48.1189 1.02413 47.2721 1.00908 46.4364C1.00306 46.1294 1.08734 45.8996 1.31508 45.6859C1.92306 45.1141 2.42068 44.3305 3.133 43.9914C3.84832 43.6513 4.77434 43.9011 5.60705 43.8981C8.53157 43.8891 11.4551 43.9031 14.3796 43.8861C14.812 43.8831 14.9916 43.9904 14.9475 44.4439C14.9113 44.8081 14.9103 45.1813 14.9475 45.5455C14.9966 46.023 14.8261 46.3611 14.4779 46.6832C14.201 46.939 13.9382 47.0634 13.5559 47.0604C11.0327 47.0444 8.5095 47.0514 5.98629 47.0524C5.30306 47.0524 5.16561 47.1908 5.16361 47.867C5.1626 48.2342 5.17966 48.6034 5.15959 48.9696C5.13351 49.4211 5.31911 49.5947 5.7746 49.5917C7.96372 49.5786 10.1539 49.6308 12.341 49.5636C13.2208 49.5365 13.8108 49.8174 14.4308 50.4224C15.104 51.0805 15.431 51.7346 15.3598 52.6867C15.2765 53.8004 15.3347 54.924 15.3448 56.0437C15.3468 56.2945 15.3046 56.5022 15.0879 56.6506C15.0337 56.6878 14.9926 56.7439 14.9455 56.7911C14.3595 57.36 13.8639 58.1485 13.1627 58.4365C12.4604 58.7254 11.5524 58.5177 10.7337 58.5207C9.53083 58.5247 8.32791 58.5217 7.12399 58.5207L7.12198 58.5237Z"></path>
    <path
      d="M89.7354 58.5215C87.8302 58.5215 85.925 58.5125 84.0198 58.5296C83.6345 58.5326 83.46 58.4353 83.5161 58.0299C83.5412 57.8494 83.5452 57.6587 83.5161 57.4802C83.3907 56.7167 83.6516 56.1468 84.2666 55.6693C84.5485 55.4505 84.7903 55.3191 85.1515 55.3211C87.7419 55.3342 90.3323 55.3291 92.9228 55.3281C93.6421 55.3281 93.7555 55.2098 93.7575 54.4774C93.7575 54.1262 93.7595 53.7751 93.7575 53.425C93.7545 52.811 93.6903 52.7457 93.0562 52.7447C90.6995 52.7427 88.3429 52.7337 85.9872 52.7528C85.5498 52.7568 85.2698 52.5752 84.9317 52.3244C83.7469 51.4435 83.3115 50.3269 83.5021 48.8671C83.6114 48.0294 83.5292 47.1646 83.5171 46.3128C83.5131 46.06 83.5844 45.8724 83.769 45.6948C84.3107 45.1731 84.8425 44.6414 85.3631 44.0986C85.5407 43.914 85.7283 43.8468 85.9812 43.8468C89.6411 43.8528 93.301 43.8558 96.9609 43.8438C97.309 43.8428 97.4365 43.9431 97.4164 44.2942C97.3913 44.7276 97.3873 45.1651 97.4164 45.5975C97.4445 46.0008 97.29 46.2777 97.0141 46.5636C96.7101 46.8796 96.3981 46.998 95.9627 46.995C93.4555 46.976 90.9493 46.985 88.4422 46.986C87.771 46.986 87.6245 47.1355 87.6225 47.8087C87.6215 48.1759 87.6406 48.5451 87.6175 48.9113C87.5874 49.3958 87.8061 49.5584 88.2716 49.5564C90.6443 49.5443 93.0181 49.5634 95.3908 49.5403C95.8493 49.5363 96.1372 49.7259 96.4864 49.9908C97.5849 50.8245 97.9983 51.8659 97.8548 53.2363C97.7545 54.1945 97.8428 55.1726 97.8608 56.1418C97.8649 56.3776 97.7986 56.5511 97.6291 56.7157C97.1124 57.2153 96.6007 57.7199 96.1061 58.2406C95.9045 58.4533 95.6888 58.5276 95.4008 58.5266C93.5127 58.5165 91.6235 58.5215 89.7354 58.5215Z"></path>
    <path
      d="M75.239 43.9956C77.3438 43.9956 79.4487 44.0106 81.5525 43.9845C82.0251 43.9785 82.1475 44.127 82.1274 44.5765C82.0933 45.36 82.0863 46.1476 82.1294 46.9311C82.1565 47.4177 81.9719 47.508 81.5355 47.499C80.2834 47.4739 79.0293 47.506 77.7772 47.4809C77.3739 47.4729 77.2756 47.6063 77.2776 47.9926C77.2906 51.3335 77.2776 54.6744 77.2947 58.0152C77.2967 58.4617 77.1953 58.6232 76.7198 58.6062C75.7025 58.569 74.6822 58.5751 73.6638 58.6041C73.2415 58.6162 73.1271 58.4767 73.1291 58.0654C73.1431 54.7576 73.1371 51.4509 73.1371 48.1431C73.1371 47.709 72.9201 47.4916 72.486 47.491C71.25 47.491 70.014 47.4779 68.7779 47.498C68.4057 47.504 68.3355 47.3535 68.3425 47.0265C68.3596 46.1747 68.3656 45.3219 68.3405 44.4711C68.3295 44.0929 68.4539 43.9866 68.8241 43.9886C70.962 44.0036 73.1 43.9956 75.238 43.9956H75.239Z"></path>
    <path
      d="M63.1718 10.7506C58.8277 3.16288 49.8685 -0.607399 41.5083 1.6339C33.2695 3.84309 27.2699 11.3234 26.9619 19.8833C26.7302 26.3263 28.9193 31.8463 33.8554 36.0329C39.59 40.8957 46.1775 42.0926 53.2264 39.459C60.9847 36.5606 65.8666 29.1986 65.8806 20.8936C65.8866 17.2758 64.9937 13.9329 63.1718 10.7506ZM49.9046 28.988C49.8866 31.2473 47.6352 32.8826 45.5103 32.2115C44.1248 31.774 43.1837 30.4748 43.1787 28.9308C43.1677 25.6722 43.1737 22.4136 43.1747 19.1549C43.1747 16.9658 43.1607 14.7767 43.1837 12.5876C43.1998 11.0425 44.2362 9.66505 45.6257 9.26173C47.6904 8.66278 49.8835 10.4024 49.9046 12.6949C49.9287 15.4188 49.9106 18.1426 49.9106 20.8665C49.9106 23.5733 49.9267 26.2811 49.9056 28.988H49.9046Z"></path>
    <path
      d="M49.6143 46.6321C49.6143 46.3954 49.5461 46.2238 49.3775 46.0603C48.7555 45.4533 48.1385 44.8413 47.5345 44.2163C47.3439 44.0186 47.1452 43.9454 46.8744 43.9474C45.3033 43.9584 43.7321 43.9524 42.161 43.9524C40.607 43.9524 39.0519 43.9604 37.4978 43.9454C37.1848 43.9424 36.9671 44.0367 36.7564 44.2624C36.2217 44.8373 35.6739 45.4011 35.1091 45.9469C34.8623 46.1857 34.7599 46.4315 34.7629 46.7786C34.778 48.9848 34.769 51.191 34.772 53.3972C34.773 54.3322 34.5262 55.3766 34.8623 56.1732C35.2134 57.0059 36.1304 57.5998 36.8006 58.2981C36.8126 58.3102 36.8256 58.3202 36.8357 58.3342C36.9882 58.5399 37.1908 58.5971 37.4457 58.5961C40.605 58.5891 43.7632 58.5891 46.9225 58.5961C47.1583 58.5961 47.3319 58.5259 47.4954 58.3583C48.1154 57.7252 48.7414 57.0982 49.3745 56.4792C49.542 56.3157 49.6153 56.1461 49.6143 55.9083C49.6073 52.8163 49.6073 49.7242 49.6143 46.6321ZM45.4708 54.0573C45.4698 54.6282 44.7916 55.2883 44.2137 55.2893C42.8613 55.2913 41.5079 55.2923 40.1555 55.2893C39.5876 55.2883 38.9205 54.6131 38.9175 54.0362C38.9124 53.1012 38.9165 52.1661 38.9165 51.2311C38.9165 50.3131 38.9134 49.3941 38.9175 48.4761C38.9205 47.9233 39.5796 47.2552 40.1254 47.2531C41.5119 47.2491 42.8974 47.2481 44.2839 47.2531C44.7936 47.2552 45.4698 47.9344 45.4708 48.446C45.4748 50.3161 45.4748 52.1872 45.4708 54.0573Z"></path>
    <path
      d="M67.2284 58.0515C66.4589 56.365 65.7215 54.6655 64.955 52.978C64.8226 52.687 64.8567 52.4984 65.0884 52.2817C65.576 51.8252 66.0315 51.3336 66.5161 50.8731C66.7147 50.6845 66.789 50.4829 66.787 50.212C66.7759 48.9589 66.7719 47.7048 66.789 46.4517C66.793 46.1367 66.6877 45.921 66.4669 45.7113C65.9703 45.2398 65.4837 44.7552 65.0142 44.2576C64.8025 44.0339 64.5838 43.9426 64.2718 43.9426C60.4614 43.9526 56.65 43.9586 52.8396 43.9375C52.369 43.9345 52.2998 44.0961 52.3028 44.5094C52.3209 46.7326 52.3119 48.9549 52.3119 51.1781C52.3119 53.4676 52.3199 55.758 52.3038 58.0475C52.3008 58.4207 52.4042 58.5361 52.7804 58.528C53.8328 58.504 54.8862 58.505 55.9387 58.528C56.3189 58.5361 56.4604 58.4418 56.4523 58.0324C56.4273 56.6459 56.4634 55.2574 56.4313 53.8709C56.4202 53.4094 56.5787 53.3111 57.0031 53.3211C58.1057 53.3472 59.2093 53.3482 60.3119 53.3201C60.7102 53.3101 60.9018 53.4315 61.0383 53.8127C61.5489 55.2434 62.1098 56.6559 62.6214 58.0866C62.7448 58.4317 62.9164 58.5351 63.2695 58.5291C64.4895 58.509 65.7095 58.507 66.9294 58.5291C67.3629 58.5371 67.398 58.4277 67.2274 58.0545L67.2284 58.0515ZM62.6475 49.4635C62.6445 50.0876 62.2913 50.4407 61.6613 50.4417C60.0922 50.4447 58.5231 50.4337 56.954 50.4497C56.5787 50.4538 56.4182 50.3685 56.4343 49.9521C56.4664 49.1184 56.4543 48.2827 56.4383 47.449C56.4323 47.147 56.5296 47.0366 56.8366 47.0427C57.6713 47.0587 58.506 47.0477 59.3397 47.0477C60.1243 47.0477 60.9088 47.0447 61.6934 47.0477C62.2612 47.0497 62.6405 47.4349 62.6455 48.0108C62.6495 48.4944 62.6485 48.979 62.6455 49.4625L62.6475 49.4635Z"></path>
    <path
      d="M32.5514 49.1154C32.5404 48.1653 32.8434 47.1088 32.4622 46.2952C32.0819 45.4825 31.181 44.9167 30.5228 44.2285C30.3212 44.0178 30.1095 43.9395 29.8196 43.9395C26.0252 43.9475 22.2319 43.9495 18.4375 43.9375C18.0502 43.9365 17.9228 44.0348 17.9258 44.4371C17.9439 46.6935 17.9349 48.9498 17.9349 51.2062C17.9349 53.4796 17.9409 55.752 17.9288 58.0254C17.9268 58.3775 17.9971 58.533 18.3944 58.524C19.4799 58.4979 20.5674 58.5019 21.653 58.522C22.0131 58.529 22.1074 58.3996 22.1024 58.0585C22.0864 56.8716 22.1185 55.6848 22.0854 54.4989C22.0723 54.0284 22.2258 53.912 22.6783 53.916C25.051 53.9361 27.4248 53.921 29.7985 53.93C30.1045 53.931 30.3342 53.8528 30.5499 53.6261C31.1148 53.0341 31.6977 52.4572 32.2846 51.8864C32.4662 51.7098 32.5474 51.5242 32.5444 51.2694C32.5354 50.551 32.5605 49.8317 32.5514 49.1134V49.1154ZM28.3357 50.0474C28.3297 50.5942 27.8732 51.0396 27.3214 51.0406C25.7182 51.0436 24.114 51.0326 22.5108 51.0487C22.1466 51.0527 22.0141 50.9564 22.0242 50.5711C22.0513 49.603 22.0553 48.6328 22.0232 47.6646C22.0091 47.2423 22.1727 47.163 22.5439 47.173C23.3455 47.1951 24.1471 47.1801 24.9497 47.1801C25.7353 47.1801 26.5198 47.1781 27.3054 47.1801C27.9093 47.1821 28.3347 47.5994 28.3377 48.1914C28.3407 48.8094 28.3438 49.4274 28.3377 50.0454L28.3357 50.0474Z"></path>
  </g>
</svg>