<svg viewBox="0 0 98 21" focusable="false" class="chakra-icon css-1wo2rdg">
  <g fill="currentColor">
    <path
      d="M13.8006 17.5109C10.3169 15.5968 7.04144 13.6076 4.09008 11.1578C3.02895 10.2775 3.0426 8.92634 3.53051 7.68097C4.0116 6.44925 5.04885 5.82144 6.30787 5.72932C7.65901 5.63037 8.7952 6.22747 9.38206 7.46602C10.5217 9.87487 11.5555 12.3315 12.6303 14.7745C13.0295 15.6821 13.4116 16.5965 13.804 17.5109H13.8006Z"></path>
    <path
      d="M19.2612 17.3555C20.6874 14.1278 22.1102 10.7909 23.6456 7.50853C24.2461 6.22904 25.4267 5.55005 26.8699 5.75477C28.1801 5.93902 29.1833 6.66236 29.6132 8.00327C30.0635 9.40559 29.7394 10.6714 28.5828 11.5108C25.7372 13.5784 22.8131 15.5369 19.9129 17.5329C19.7389 17.6523 19.5137 17.7922 19.2578 17.3521L19.2612 17.3555Z"></path>
    <path
      d="M12.7978 1.44093C14.7904 1.44775 16.2234 2.91832 15.9675 4.98939C15.6229 7.79062 15.0736 10.5646 14.6062 13.3521C14.5482 13.6899 14.4902 14.038 14.0602 14.1028C13.603 14.171 13.3233 13.9629 13.1424 13.5398C11.9585 10.7898 10.6414 8.08746 9.62126 5.27599C8.94228 3.40623 10.7267 1.43069 12.7978 1.43752V1.44093Z"></path>
    <path
      d="M17.9784 4.70537C16.7603 4.73266 16.9548 3.93426 17.4324 3.05056C18.1831 1.66529 19.9095 1.05114 21.4006 1.61411C22.8848 2.17368 23.9493 3.82166 23.3829 5.30588C22.0761 8.72127 20.5476 12.0514 18.8928 15.3712C18.6164 11.8603 16.6613 8.50972 17.9784 4.70537Z"></path>
    <path
      d="M13.6719 19.6154C10.3861 19.6154 7.10041 19.6393 3.81468 19.6018C2.47036 19.5881 1.55595 18.7658 1.12945 17.5785C0.685891 16.3502 0.795074 15.0877 1.83232 14.1187C2.83544 13.1838 4.10128 12.7915 5.275 13.5148C8.19566 15.3129 11.0208 17.2714 13.8834 19.1685C13.8118 19.3186 13.7401 19.4653 13.6685 19.6154H13.6719Z"></path>
    <path
      d="M19.7495 18.9322C22.1652 17.2433 24.5672 15.527 27.0068 13.8688C28.2351 13.0329 29.5589 12.9305 30.8316 13.8142C31.8518 14.5205 32.3056 15.5339 32.1316 16.7622C31.92 18.2498 31.1523 19.2768 29.5862 19.5566C26.8567 19.2734 24.1202 19.5156 21.3873 19.4235C20.8106 19.403 20.1214 19.6624 19.7461 18.9322H19.7495Z"></path>
    <path
      d="M19.7478 18.9297C21.6107 19.5609 23.5351 19.1276 25.4253 19.2606C26.8106 19.3596 28.2333 19.0013 29.5845 19.5541C26.3875 19.5848 23.1904 19.6189 19.9968 19.6291C19.7307 19.6291 19.2701 19.8373 19.2462 19.3152C19.2394 19.1958 19.5703 19.0593 19.7478 18.9297Z"></path>
    <path
      d="M92.3378 4.32934C92.9076 4.32934 93.491 4.23721 94.0403 4.3464C96.1455 4.75583 97.1009 3.6913 97.7287 1.84542C98.104 0.739935 97.7867 0.62734 96.8211 0.640988C93.8663 0.681931 90.9116 0.62734 87.9568 0.664872C85.797 0.692167 85.1214 1.39845 85.1146 3.56505C85.101 8.2224 85.1146 12.8798 85.101 17.5337C85.101 17.9943 85.275 18.5129 84.6745 19.2636C84.3947 16.36 82.4601 16.6671 80.6381 16.7285C79.7305 16.7592 78.8093 16.6398 77.9153 16.7558C76.3458 16.9537 75.9091 16.3668 75.9534 14.8041C76.0694 10.8326 75.9978 6.8542 75.9876 2.87925C75.9841 0.88665 75.643 0.729699 73.3433 0.617104C71.2961 0.518156 72.0604 1.91366 71.8864 2.87925C71.7021 3.9199 72.7939 4.74219 72.3913 6.03874C71.9444 5.4007 71.6441 4.92985 71.3063 4.48629C66.9185 -1.28678 57.7335 -0.955818 54.6593 5.54741C53.1307 8.77515 51.4043 9.48484 48.371 9.11634C47.3065 8.98669 45.87 10.6176 46.0338 11.9073C46.1942 13.1834 47.3849 12.3031 48.0844 12.4635C48.7873 12.6239 49.555 12.4737 50.2919 12.5078C50.7219 12.5283 51.3121 12.2724 51.5476 12.7126C51.8103 13.2039 51.3428 13.6611 51.0869 14.0808C49.4492 16.7694 46.0099 17.7248 43.1916 16.2849C40.3529 14.8348 39.0495 11.1669 40.2676 8.06886C41.4413 5.0868 44.7441 3.47293 47.7944 4.4317C48.4904 4.65006 49.2104 4.92985 49.7904 5.35634C50.93 6.19228 51.4793 5.66342 52.0389 4.66712C52.5882 3.6913 53.1955 2.93384 51.7113 2.10473C49.5515 0.90371 47.3269 0.289554 44.8703 0.511332C39.2985 1.01972 35.0165 6.29122 35.8047 11.6617C36.6986 17.7452 42.1578 21.6247 47.9616 20.369C51.4418 19.615 53.7312 17.445 55.3383 14.2923C56.0309 15.35 54.707 16.377 55.7648 17.3802C58.4636 19.946 61.5105 21.089 65.2262 20.4134C67.9319 19.9187 69.9313 18.3492 71.8318 16.07C71.9955 20.0176 72.3709 20.3725 75.9978 20.3725C79.0106 20.3725 82.0199 20.3827 85.0327 20.3725C89.4751 20.352 89.0384 20.8501 89.052 16.36C89.0589 13.7851 90.3725 12.4976 92.9929 12.4976C95.8146 12.4976 96.2445 12.1189 96.7426 9.19482C96.6914 9.17435 96.6403 9.1334 96.5891 9.1334C94.5453 9.11634 92.4981 9.03104 90.4578 9.10952C89.2943 9.15387 89.0316 8.72055 89.0281 7.64237C89.0145 4.32251 88.9735 4.32251 92.3378 4.32251V4.32934ZM63.0903 16.9264C59.7158 16.8411 57.1705 13.9852 57.2217 10.3344C57.2694 6.86444 59.9888 4.10073 63.3121 4.14168C66.6831 4.18603 69.341 7.06916 69.3035 10.6483C69.2694 14.1558 66.4443 17.0117 63.0869 16.9264H63.0903Z"></path>
  </g>
</svg>