<svg viewBox="0 0 98 59" focusable="false" class="chakra-icon css-2y2p2z">
  <g fill="currentColor">
    <path
      d="M55.3038 11.6898C55.3038 21.0716 55.2673 30.2552 55.3247 39.4388C55.3403 41.9733 57.1239 42.7973 59.3507 42.912C60.5553 42.9746 61.8851 42.7452 61.8174 44.6643C61.7443 46.6929 60.232 46.1506 59.1525 46.161C55.2465 46.2027 51.3404 46.161 47.4344 46.1297C46.3236 46.1193 45.1033 46.3226 45.0616 44.5548C45.0251 43.0163 45.9846 43.0007 47.0902 42.886C49.3535 42.6565 50.5269 41.2537 50.5373 39.0529C50.5842 28.9828 50.5999 18.9178 50.5373 8.84764C50.5269 6.62605 49.2231 5.08763 47.0902 4.46704C45.8699 4.11242 45.025 3.71608 45.1867 2.22459C45.3849 0.404555 46.7616 0.91041 47.7629 0.89998C52.6233 0.84783 57.4837 0.946915 62.3441 0.8374C64.1015 0.800895 65.228 1.44756 66.2918 2.7826C72.0805 10.0419 77.9421 17.2438 83.7829 24.4614C84.148 24.9098 84.367 25.5461 85.0919 25.6347C85.7438 25.228 85.5039 24.5552 85.5091 24.0024C85.53 18.97 85.5508 13.9323 85.5091 8.89979C85.483 5.55176 84.8155 4.81123 81.5509 4.23237C80.3932 4.02898 79.0112 4.20108 79.1625 2.29239C79.3085 0.46192 80.6539 0.905195 81.6761 0.894765C85.6708 0.84783 89.6602 0.86869 93.6549 0.884335C94.6771 0.884335 95.7827 0.727885 95.8765 2.33411C95.96 3.78388 95.0891 4.00291 93.9939 4.26366C90.8284 5.01462 90.213 5.80208 90.2078 9.13447C90.1922 20.159 90.2339 31.1835 90.1505 42.2028C90.14 43.4909 91.1309 45.6968 89.097 45.942C86.9015 46.2079 84.3722 47.1205 82.4375 44.5756C78.6566 39.6057 74.6306 34.8184 70.7141 29.9528C66.1406 24.2736 61.5775 18.5893 57.0039 12.9153C56.6336 12.4616 56.3833 11.8515 55.2934 11.6794L55.3038 11.6898Z"></path>
    <path
      d="M21.0159 46.1434C15.1125 46.1434 9.20917 46.159 3.30578 46.1329C2.25235 46.1329 0.959033 46.4771 0.886023 44.6467C0.807798 42.6441 2.17413 42.9831 3.3475 42.957C6.22618 42.8979 7.66552 41.469 7.66552 38.6703C7.66552 28.1673 7.59773 17.659 7.71767 7.15602C7.74375 4.77798 7.06058 3.95401 4.65647 4.01138C3.3475 4.03745 0.839088 5.17954 0.985108 2.32693C1.11548 -0.238848 3.4153 0.965817 4.69819 0.939742C11.6394 0.809367 18.5857 0.866732 25.5321 0.892807C26.5856 0.892807 27.9206 0.548617 27.978 2.36865C28.0405 4.31906 26.6481 4.04267 25.4695 4.07917C22.2119 4.18 20.5831 5.8853 20.5831 9.19509C20.5831 19.4374 20.6457 29.6848 20.5361 39.9271C20.5101 42.2895 21.1724 43.2543 23.6078 42.9727C25.6729 42.7328 27.7485 42.6493 29.7511 41.9922C35.0599 40.2452 37.6622 36.8346 37.9125 31.2233C37.9282 30.8791 37.9438 30.5297 37.9282 30.1803C37.8656 28.9808 38.1472 28.1986 39.6126 28.1777C41.2084 28.1568 41.4744 29.033 41.464 30.3263C41.4431 34.8425 41.3909 39.3587 41.49 43.8696C41.5317 45.7783 40.6869 46.1903 38.9868 46.1695C32.9948 46.1017 27.008 46.1434 21.0159 46.1434Z"></path>
  </g>
</svg>